# xmcd CD database file
#
# Track frame offsets:
#	150
#	18870
#	32280
#	49545
#	57160
#	60392
#	64120
#	95100
#	98502
#	101862
#	120557
#	126702
#	129817
#	135442
#	141080
#	144662
#	148682
#	155987
#	158862
#	170462
#	185545
#
# Disc length: 2736 seconds
#
# Revision: 0
# Processed by: cddbd v1.5PL3 Copyright (c) Steve Scherf et al.
# Submitted via: CDex 1.51
#
DISCID=290aae15
DTITLE=Manu Dibango - On vit de Femmes
DYEAR=1989
DGENRE=Jazz
TTITLE0=On vit de Femmes
TTITLE1=Pour Commencer
TTITLE2=Bolingo City
TTITLE3=heme de L'ecrivain
TTITLE4=Pusher
TTITLE5=Belzebuth
TTITLE6=Montreal Festval Blues
TTITLE7=Be my wife
TTITLE8=Miss suicide
TTITLE9=Kabassale feeling
TTITLE10=Long pusher
TTITLE11=Fun love
TTITLE12=Rumba club
TTITLE13=Theme de L'ecrivain
TTITLE14=Pusher 1
TTITLE15=Montreal Jazz Festival
TTITLE16=Katmandou
TTITLE17=Night in Blue
TTITLE18=Drama pusher
TTITLE19=Parc 2
TTITLE20=Parc 1
EXTD=YEAR: 1989
EXTT0=
EXTT1=
EXTT2=
EXTT3=
EXTT4=
EXTT5=
EXTT6=
EXTT7=
EXTT8=
EXTT9=
EXTT10=
EXTT11=
EXTT12=
EXTT13=
EXTT14=
EXTT15=
EXTT16=
EXTT17=
EXTT18=
EXTT19=
EXTT20=
PLAYORDER=
